<?xml version="1.0" encoding="UTF-8"?>
<svg width="423px" height="414px" viewBox="0 0 423 414" version="1.1" xmlns="http://www.w3.org/2000/svg" xmlns:xlink="http://www.w3.org/1999/xlink">
    <title>Logo</title>
    <g id="主页面" stroke="none" stroke-width="1" fill="none" fill-rule="evenodd">
        <g id="Logo改色" transform="translate(-89.000000, -50.000000)">
            <g id="Logo" transform="translate(89.000000, 50.000000)">
                <path d="M211.466165,0 L422.932331,153.850265 L422.932331,413.533835 L230.263158,413.533835 L211.466165,400.37594 L192.669173,413.533835 L0,413.533835 L0,153.850265 L211.466165,0 Z" id="Bootom" fill="#FFFFFF"></path>
                <g transform="translate(211.436641, 211.466165) scale(-1, 1) rotate(-180.000000) translate(-211.436641, -211.466165) translate(23.496241, 27.255639)" fill="#9CCC64" fill-rule="nonzero" id="路径">
                    <path d="M0,231.203008 L0,0 L164.962406,0 C155.417926,12.7733129 147.035729,24.6639638 139.815814,35.6719527 C118.876562,66.7096031 110.451988,96.1906738 110.923748,125.120624 C111.248186,145.016311 116.166367,164.721436 125.921429,184.210526 C132.897324,198.147274 143.674032,210.132309 154.734436,221.24912 C168.074859,234.657578 179.119468,239.302136 187.845018,239.302136 C195.710601,239.302136 210.127698,231.979239 223.535571,219.15241 C236.361572,206.882237 247.954653,188.310277 254.08551,175.505031 C260.249384,162.69134 264.287366,148.770673 265.08956,134.125054 C265.770042,121.701521 264.96305,115.510388 263.393104,103.021515 C262.91498,99.218058 259.935186,86.8183868 257.971439,80.0205331 C256.414791,74.6319238 253.186511,64.5810019 248.2866,49.8677673 L230.465863,55.0550938 C232.250056,61.7516425 235.092982,70.8083958 238.994642,82.2253535 C239.343556,83.2463389 240.50862,87.4450873 240.733831,88.3458143 C242.178389,94.123298 243.706058,100.321508 244.5331,106.398584 C245.786105,115.60562 245.63907,124.354154 245.63907,129.443307 C245.415448,138.601945 243.411846,150.868869 238.994642,162.099051 C232.152797,179.493572 221.293568,195.371291 209.863333,205.75121 C201.854032,213.024543 194.280406,215.643859 187.845018,215.124567 C184.204767,214.830823 181.834127,213.552576 177.715444,211.495454 C168.43904,207.441403 155.614798,193.893343 146.792924,175.505031 C138.268735,157.737214 134.732573,136.013414 134.732573,121.18382 C134.732573,107.198269 137.785304,90.6806281 143.990954,75.0659241 C153.449231,51.2669373 170.608815,31.1512849 191.259398,17.0552662 C198.184144,12.0382919 203.353317,8.62790316 206.766917,6.82409999 C210.5258,4.83784399 216.115351,2.563144 223.535571,0 L375.690035,0 L375.223031,118.801249 C375.474871,143.580724 375.660352,164.263157 375.779473,180.848548 C375.939712,203.158727 375.909899,219.943547 375.690035,231.203008 L187.845018,368.421053 L0,231.203008 Z"></path>
                </g>
            </g>
        </g>
    </g>
</svg>